<svg id="Capa_1"  data-name="Capa 1" xmlns="http://www.w3.org/2000/svg" viewBox="0 0 35 35"><defs><style>.cls-1{fill:#666;}</style></defs><path class="cls-1" d="M5.68,11l-.14.43a5,5,0,0,0,.7.41A5.12,5.12,0,0,0,7,11.43l0,0A2.16,2.16,0,0,1,7.83,10,11.66,11.66,0,0,0,7.9,8.33a3.82,3.82,0,0,0-2.12,2.4C5.75,10.81,5.69,11,5.68,11Z"/><path class="cls-1" d="M32,17.22a2.17,2.17,0,0,0-1-.64L29.32,11A4.56,4.56,0,0,0,25,7.79H9.69c0,.51,0,1,0,1.39a1.39,1.39,0,0,1,.37,0H25A3.18,3.18,0,0,1,28,11.45l1.53,5H28.46a4.22,4.22,0,0,0-8.2,0H5.47l.74-2.41-.12.07,0,0,0,0c-.41-.21-.76-.41-1.07-.61L4,16.58a2.17,2.17,0,0,0-1,.64A2.21,2.21,0,0,0,2.53,19l.92,6a2.17,2.17,0,0,0,1.64,1.77v1.49A1.86,1.86,0,0,0,7,30.09H8.48a1.86,1.86,0,0,0,1.86-1.87V26.79H24.66v1.43a1.86,1.86,0,0,0,1.86,1.87h1.53a1.87,1.87,0,0,0,1.86-1.87V26.73A2.17,2.17,0,0,0,31.55,25l.92-6A2.21,2.21,0,0,0,32,17.22Zm-7.61-2.6A2.83,2.83,0,0,1,27,16.47H21.7A2.85,2.85,0,0,1,24.36,14.62ZM9,28.22a.47.47,0,0,1-.48.48H7a.47.47,0,0,1-.48-.48V26.79H9Zm19.57,0a.47.47,0,0,1-.48.48H26.52a.47.47,0,0,1-.48-.48V26.79h2.49Zm2.57-9.46-.92,6a.78.78,0,0,1-.77.67H5.59a.78.78,0,0,1-.77-.67l-.92-6a.79.79,0,0,1,.18-.63.78.78,0,0,1,.6-.28H30.32a.79.79,0,0,1,.78.91Z"/><path class="cls-1" d="M7.82,19.31a2.36,2.36,0,1,0,2.3,2.36A2.33,2.33,0,0,0,7.82,19.31Zm0,3.33a1,1,0,0,1,0-1.95,1,1,0,0,1,0,1.95Z"/><path class="cls-1" d="M27.18,19.31a2.36,2.36,0,1,0,2.31,2.36A2.33,2.33,0,0,0,27.18,19.31Zm0,3.33a1,1,0,0,1,0-1.95,1,1,0,0,1,0,1.95Z"/><path class="cls-1" d="M21.63,22.4H13.37a.69.69,0,1,0,0,1.38h8.26a.69.69,0,0,0,0-1.38Z"/><path class="cls-1" d="M21.63,20.1H13.37a.7.7,0,0,0,0,1.39h8.26a.7.7,0,0,0,0-1.39Z"/><path class="cls-1" d="M5,13.18A8.82,8.82,0,0,0,6,13.8l.12.06.11-.06.26-.14A4.57,4.57,0,0,0,9.39,9.34c0-.45,0-.94,0-1.46V6.57H9.16A3.7,3.7,0,0,1,6.33,5.15l-.19-.24-.2.24A3.7,3.7,0,0,1,3.12,6.58H2.85v.8C2.84,10.1,2.83,11.75,5,13.18ZM6.14,6.66a2.73,2.73,0,0,0,2,1v.39a14.36,14.36,0,0,1,0,1.53,2.73,2.73,0,0,1-1.47,2.31c-.16.1-.33.19-.52.29-.23-.12-.44-.24-.64-.37-1.41-.92-1.41-2-1.4-3.85V7.7A2.8,2.8,0,0,0,6.14,6.66ZM6,6.55H6l0,0Zm.18,0,0,0h0ZM3.85,8Z"/></svg>         
