<svg xmlns="http://www.w3.org/2000/svg" width="35" height="35" viewBox="0 0 35 35">
    <g fill="none" fill-rule="evenodd">
        <g>
            <path fill="#FEFEFE" d="M3.993.717v7.12L.388 10.065c-.2.124-.306.402-.254.672.052.27.246.46.471.46h9.68c.225 0 .42-.19.472-.46.051-.27-.054-.548-.255-.672L6.897 7.838V.718" transform="translate(8 1) translate(3.929 21.005)"/>
            <path stroke="#666" stroke-width="1.5" d="M3.993.717v7.12L.388 10.065c-.2.124-.306.402-.254.672.052.27.246.46.471.46h9.68c.225 0 .42-.19.472-.46.051-.27-.054-.548-.255-.672L6.897 7.838V.718" transform="translate(8 1) translate(3.929 21.005)"/>
        </g>
        <path fill="#FEFEFE" d="M15.632 1.077c-.065-.285-.32-.488-.611-.488H3.726c-.292 0-.546.203-.611.488C.61 12.052.589 11.714.589 13.138c0 4.175 2.926 7.71 6.902 8.58l1.255.181c.417.03.837.03 1.255 0l1.254-.18c4.089-.895 6.977-4.568 6.901-8.718-.026-1.61-.277-1.818-2.524-11.924" transform="translate(8 1)"/>
        <path stroke="#666" stroke-width="1.5" d="M15.632 1.077c-.065-.285-.32-.488-.611-.488H3.726c-.292 0-.546.203-.611.488C.61 12.052.589 11.714.589 13.138c0 4.175 2.926 7.71 6.902 8.58l1.255.181c.417.03.837.03 1.255 0l1.254-.18c4.089-.895 6.977-4.568 6.901-8.718-.026-1.61-.277-1.818-2.524-11.924z" transform="translate(8 1)"/>
        <g stroke="#666">
            <path fill="#FEFEFE" d="M.062.295s.903 2.708 4.414 3.01c3.51.3 4.514-2.508 7.723-2.408 3.21.1 4.915 2.709 4.915 2.709" transform="translate(8 1) translate(.786 10.005)"/>
            <path stroke-width="1.5" d="M.062.295s.903 2.708 4.414 3.01c3.51.3 4.514-2.508 7.723-2.408 3.21.1 4.915 2.709 4.915 2.709" transform="translate(8 1) translate(.786 10.005)"/>
        </g>
    </g>
</svg>
