<?xml version="1.0" encoding="UTF-8"?>
<svg width="35px" height="35px" viewBox="0 0 35 35" version="1.1" xmlns="http://www.w3.org/2000/svg" xmlns:xlink="http://www.w3.org/1999/xlink">
    <title>Icono/Conducir cansado/Siesta@1,5x</title>
    <g id="Icono/Conducir-cansado/Siesta" stroke="none" stroke-width="1" fill="none" fill-rule="evenodd" stroke-linecap="round" stroke-linejoin="round">
        <g id="Group-5" transform="translate(5.000000, 5.000000)" stroke="#666666" stroke-width="0.75">
            <path d="M21.0594,23.4627 L20.0974,22.0957 L21.0764,21.2227 L22.1124,23.4627 L21.0594,23.4627 Z M5.6074,21.7437 L4.1914,20.4807 C2.2444,18.4367 1.0444,15.6737 1.0444,12.6347 C1.0444,6.3547 6.1544,1.2457 12.4334,1.2457 C18.7134,1.2457 23.8224,6.3547 23.8224,12.6347 C23.8224,18.9137 18.7134,24.0237 12.4334,24.0237 C9.8744,24.0237 7.5104,23.1747 5.6074,21.7437 Z M4.0334,23.4627 L2.9794,23.4627 L4.0044,21.2457 C4.3154,21.5507 4.6434,21.8377 4.9864,22.1087 L4.0334,23.4627 Z M1.2704,4.0667 C1.2704,2.4007 2.6254,1.0447 4.2914,1.0447 C5.1784,1.0447 6.0094,1.4337 6.5794,2.0977 C4.7954,3.0927 3.2894,4.5257 2.2084,6.2527 C1.6164,5.6887 1.2704,4.8957 1.2704,4.0667 Z M20.7994,1.0447 C22.4664,1.0447 23.8224,2.4007 23.8224,4.0667 C23.8224,4.9587 23.4174,5.8077 22.7384,6.3767 C21.6824,4.6457 20.2024,3.2027 18.4444,2.1877 C19.0144,1.4697 19.8744,1.0447 20.7994,1.0447 Z M23.0744,6.9677 C23.9614,6.2737 24.4924,5.1977 24.4924,4.0667 C24.4924,2.0307 22.8354,0.3747 20.7994,0.3747 C19.6294,0.3747 18.5434,0.9317 17.8494,1.8647 C16.2194,1.0427 14.3804,0.5757 12.4334,0.5757 C10.5504,0.5757 8.7684,1.0097 7.1794,1.7817 C6.4834,0.8997 5.4274,0.3747 4.2914,0.3747 C2.2554,0.3747 0.5994,2.0307 0.5994,4.0667 C0.5994,5.1307 1.0704,6.1437 1.8634,6.8377 C0.9154,8.5587 0.3744,10.5337 0.3744,12.6347 C0.3744,15.7467 1.5604,18.5887 3.5044,20.7307 L1.9314,24.1327 L4.3804,24.1327 L5.5234,22.5077 C7.4824,23.8827 9.8644,24.6927 12.4334,24.6927 C15.0684,24.6927 17.5064,23.8407 19.4934,22.4007 L20.7114,24.1327 L23.1604,24.1327 L21.5094,20.5617 C23.3644,18.4397 24.4924,15.6667 24.4924,12.6347 C24.4924,10.5867 23.9784,8.6577 23.0744,6.9677 Z" id="Stroke-1"></path>
            <path d="M12.4335,5.369 C12.2475,5.369 12.0985,5.519 12.0985,5.704 L12.0985,12.829 L7.8885,17.039 C7.7575,17.17 7.7575,17.382 7.8885,17.513 C7.9545,17.578 8.0395,17.611 8.1255,17.611 C8.2105,17.611 8.2965,17.578 8.3625,17.513 L12.7685,13.106 L12.7685,5.704 C12.7685,5.519 12.6195,5.369 12.4335,5.369 Z" id="Stroke-3"></path>
        </g>
    </g>
</svg>