<?xml version="1.0" encoding="UTF-8"?>
<svg width="32px" height="31px" viewBox="0 0 32 31" version="1.1" xmlns="http://www.w3.org/2000/svg" xmlns:xlink="http://www.w3.org/1999/xlink">
    <title>Medallas/sin medalla</title>
    <g id="PT_nuevo---cambios-rápidos" stroke="none" stroke-width="1" fill="none" fill-rule="evenodd">
        <g id="1200/Stars_Home-v2-(ranking)" transform="translate(-815.000000, -4250.000000)">
            <g id="Group-15-Copy-4" transform="translate(46.000000, 4251.000000)">
                <g id="Group-16-Copy" transform="translate(769.999987, 0.103863)">
                    <g id="Group-3" fill="#F8F8F8" stroke="#CECDCD" stroke-width="0.5">
                        <path d="M14.8454602,1.86182947 L17.74067,0.200124835 C18.4959148,-0.215301323 19.4608448,0.0339543723 19.8804252,0.781721457 C19.8804252,0.823264072 19.9223833,0.864806688 19.9223833,0.906349304 L21.3909148,3.5235341 L24.7056001,3.5235341 C25.586719,3.5235341 26.2581525,4.22975857 26.2581525,5.06061088 L26.2160896,8.17630707 L29.1111945,9.8380117 C29.8664392,10.2534379 30.1182924,11.208918 29.698712,11.9566851 C29.698712,11.9982277 29.656649,11.9982277 29.656649,12.0397703 L28.0622434,14.6569551 L29.7405651,17.5233956 C30.1601455,18.2711627 29.9085022,19.2266429 29.1531525,19.642069 C29.1111945,19.642069 29.0693413,19.6836116 29.0272784,19.6836116 L26.3839218,21.1376032 L26.3839218,24.4194698 C26.3839218,25.2918648 25.670635,25.9565466 24.8314742,25.9565466 L21.6846211,25.915004 L20.0062994,28.7814445 C19.586719,29.5292116 18.621684,29.7784673 17.8665441,29.3630411 C17.8244812,29.3630411 17.8244812,29.3214985 17.7825231,29.3214985 L15.1392714,27.7844217 L12.2440616,29.4461264 C11.4888169,29.8615525 10.5238868,29.6122968 10.1043064,28.8645297 C10.1043064,28.8229871 10.0622434,28.7814445 10.0622434,28.7399019 L8.59371196,26.1227171 L5.27913154,26.1227171 C4.39790776,26.1227171 3.72657909,25.4164926 3.72657909,24.5856403 L3.76853714,21.4699441 L0.873537135,19.8082395 C0.11829238,19.3928133 -0.133560767,18.4373332 0.286019653,17.6895661 C0.286019653,17.6480235 0.32808259,17.6480235 0.32808259,17.6064809 L1.88042525,14.9892961 L0.202103569,12.1228556 C-0.217476851,11.3750885 0.0343762963,10.4196083 0.789516156,10.0041822 C0.831474198,10.0041822 0.873537135,9.96263955 0.915390282,9.96263955 L3.55874693,8.508648 L3.55874693,5.22678135 C3.55874693,4.35438642 4.27203364,3.68970456 5.11119448,3.68970456 L8.25804762,3.73124718 L9.9363693,0.864806688 C10.3559497,0.117039604 11.3209847,-0.132216091 12.0763343,0.283210067 C12.1181875,0.283210067 12.1181875,0.324752683 12.1601455,0.324752683 L14.8454602,1.86182947 Z" id="Fill-1"></path>
                    </g>
                    <path d="M20.3839952,25.9565466 L18.7056735,28.8229871 C18.5377364,29.1137854 18.2860931,29.3214985 18.0343448,29.4461264 C18.7475266,29.7784673 19.6287504,29.5292116 20.0483308,28.8229871 L21.7266525,25.9980892 L20.3839952,25.9565466 Z" id="Fill-4" fill="#CECDCD"></path>
                    <path d="M29.7405651,17.5233749 L28.0622434,14.6569344 L29.656649,12.0397496 C29.656649,11.998207 29.698712,11.998207 29.698712,11.9566643 C30.1182924,11.2088973 29.8664392,10.2534171 29.1111945,9.83799093 L26.2160896,8.1762863 L26.2581525,5.06059011 C26.2581525,4.18829904 25.5447609,3.52351333 24.7056001,3.52351333 L21.3909148,3.52351333 L19.9223833,0.906328533 C19.9223833,0.864889773 19.8804252,0.823243301 19.8804252,0.781700685 C19.4608448,0.0754762167 18.5798308,-0.173675622 17.8665441,0.158561448 C18.1602504,0.283189296 18.3700406,0.490902375 18.5377679,0.781700685 C18.5377679,0.823243301 18.5798308,0.864889773 18.5798308,0.906328533 L20.0483623,3.52351333 L23.3629427,3.52351333 C24.2441665,3.52351333 24.9153903,4.2297378 24.9153903,5.06059011 L24.8735371,8.1762863 L27.7685371,9.83799093 C28.5237819,10.2534171 28.775635,11.2088973 28.3560546,11.9566643 C28.3560546,11.998207 28.3139917,11.998207 28.3139917,12.0397496 L26.761649,14.6569344 L28.4399707,17.5233749 C28.8595511,18.2711419 28.607698,19.2266221 27.8524532,19.6420483 C27.8106001,19.6420483 27.7685371,19.6835909 27.726684,19.6835909 L25.0833273,21.1375824 L25.0833273,24.4194491 C25.0833273,25.2087588 24.4539567,25.8734406 23.6986071,25.9565259 L24.8314742,25.9565259 C25.712698,25.9565259 26.3839218,25.2503014 26.3839218,24.4194491 L26.3839218,21.1375824 L29.0272784,19.6835909 C29.0693413,19.6835909 29.1111945,19.6420483 29.1531525,19.6420483 C29.9085022,19.1850795 30.2021036,18.2711419 29.7405651,17.5233749" id="Fill-6" fill="#CECDCD"></path>
                </g>
            </g>
        </g>
    </g>
</svg>