<svg xmlns="http://www.w3.org/2000/svg" width="40" height="40" viewBox="0 0 40 40">
    <g fill="none" fill-rule="evenodd">
        <path fill="#000" d="M20 0c11.032.032 19.968 8.968 20 20-.032 11.032-8.968 19.968-20 20C8.968 39.968.032 31.032 0 20 .032 8.968 8.968.032 20 0"/>
        <text fill="#FEFEFE" font-family="OpenSans, Open Sans" font-size="11">
            <tspan x="13" y="25">10</tspan>
        </text>
        <path fill="#FEFEFE" d="M7.008 20.165l.943.033c-.09 2.3.466 4.578 1.604 6.579 3.314 5.834 10.731 7.878 16.565 4.564 5.835-3.315 7.88-10.731 4.565-16.566a12.15 12.15 0 0 0-15.525-5.09l.95 1.645-5.58.335L13.61 7l1 1.732c6.574-3.04 14.37-.175 17.41 6.4 3.04 6.574.174 14.368-6.4 17.408-6.575 3.04-14.369.175-17.409-6.399a13.114 13.114 0 0 1-1.203-5.976"/>
    </g>
</svg>
