<svg xmlns="http://www.w3.org/2000/svg" width="40" height="40" viewBox="0 0 40 40">
    <g fill="none" fill-rule="evenodd">
        <path fill="#000" d="M40 20c-.032 11.032-8.968 19.968-20 20C8.968 39.968.032 31.032 0 20 .032 8.968 8.968.032 20 0c11.032.032 19.968 8.968 20 20z"/>
        <text fill="#FEFEFE" font-family="OpenSans, Open Sans" font-size="11">
            <tspan x="13" y="25">10</tspan>
        </text>
        <path fill="#FEFEFE" d="M33.225 20.165l-.943.033c.09 2.3-.466 4.578-1.604 6.579-3.314 5.834-10.73 7.878-16.565 4.564a12.15 12.15 0 1 1 10.96-21.656l-.95 1.645 5.58.335L26.623 7l-1 1.732c-6.574-3.04-14.369-.175-17.409 6.4-3.04 6.574-.175 14.368 6.4 17.408 6.574 3.04 14.368.175 17.408-6.399a13.114 13.114 0 0 0 1.203-5.976"/>
    </g>
</svg>
