<?xml version="1.0" encoding="UTF-8"?>
<svg width="30px" height="30px" viewBox="0 0 30 30" version="1.1" xmlns="http://www.w3.org/2000/svg" xmlns:xlink="http://www.w3.org/1999/xlink">
    <title>Medallas/Oro</title>
    <defs>
        <polygon id="path-1" points="0 0 29.9813814 0 29.9813814 30 0 30"></polygon>
        <linearGradient x1="50%" y1="0%" x2="74.318364%" y2="100%" id="linearGradient-3">
            <stop stop-color="#FEDD29" offset="0%"></stop>
            <stop stop-color="#FCB912" offset="100%"></stop>
        </linearGradient>
    </defs>
    <g id="PT_nuevo---cambios-rápidos" stroke="none" stroke-width="1" fill="none" fill-rule="evenodd">
        <g id="1200/Stars_Home-v2-(ranking)" transform="translate(-816.000000, -3703.000000)">
            <g id="Group-15" transform="translate(46.000000, 3702.000000)">
                <g id="Medallas/Oro" transform="translate(770.000000, 1.000000)">
                    <g id="oro">
                        <g id="Group-3">
                            <mask id="mask-2" fill="white">
                                <use xlink:href="#path-1"></use>
                            </mask>
                            <g id="Clip-2"></g>
                            <path d="M14.8646751,1.88404543 L17.7635154,0.202512791 C18.5197346,-0.217870369 19.4860147,0.034359527 19.9061364,0.791049214 C19.9061364,0.83308753 19.9480436,0.875125846 19.9480436,0.917164162 L21.4184698,3.56557807 L24.7375369,3.56557807 C25.6196876,3.56557807 26.2919874,4.28022944 26.2919874,5.12099576 L26.2498702,8.27386945 L29.1488155,9.95540209 C29.9049297,10.3757852 30.1571078,11.3426665 29.736986,12.0993562 C29.736986,12.1413945 29.6948688,12.1413945 29.6948688,12.1834328 L28.0985111,14.8318467 L29.7789982,17.7324905 C30.1991199,18.4891802 29.9470469,19.4560615 29.1907226,19.8764446 C29.1488155,19.8764446 29.1068033,19.918483 29.0646861,19.918483 L26.418024,21.389824 L26.418024,24.710851 C26.418024,25.5936556 25.7037119,26.2662687 24.8634684,26.2662687 L21.712555,26.2242304 L20.0320679,29.1248742 C19.6119462,29.8815638 18.6457711,30.1337937 17.8895519,29.7134106 C17.8474347,29.7134106 17.8474347,29.6713723 17.8055276,29.6713723 L15.1587604,28.1159546 L12.2598151,29.7974872 C11.5037009,30.2178704 10.5374208,29.9656405 10.1172991,29.2089508 C10.1172991,29.1669125 10.0751819,29.1248742 10.0751819,29.0828358 L8.60475565,26.4344219 L5.28589866,26.4344219 C4.4035379,26.4344219 3.73144809,25.7197706 3.73144809,24.8790042 L3.77335523,21.7261305 L0.874620015,20.0445979 C0.118400819,19.6242148 -0.133777276,18.6573335 0.286344499,17.9006438 C0.286344499,17.8586055 0.328461707,17.8586055 0.328461707,17.8165672 L1.88280725,15.1681533 L0.202320144,12.2675095 C-0.217801631,11.5108198 0.0343764643,10.5439385 0.79059566,10.1235554 C0.832502807,10.1235554 0.874620015,10.081517 0.916527162,10.081517 L3.56329435,8.61017598 L3.56329435,5.28914902 C3.56329435,4.40634438 4.27750137,3.73373133 5.11774492,3.73373133 L8.26865823,3.77576965 L9.94914533,0.875125846 C10.3692671,0.118436159 11.3355472,-0.133793737 12.0918714,0.286589423 C12.1338836,0.286589423 12.1338836,0.328627739 12.1757907,0.328627739 L14.8646751,1.88404543 Z" id="Fill-1" fill="url(#linearGradient-3)" mask="url(#mask-2)"></path>
                        </g>
                        <path d="M20.4102616,26.2662687 L18.7297745,29.1669125 C18.5616207,29.4611807 18.3096527,29.6713723 18.0575796,29.7974872 C18.7716816,30.1337937 19.6540424,29.8815638 20.0741641,29.1669125 L21.7546512,26.308307 L20.4102616,26.2662687 Z" id="Fill-4" fill="#F2A31E"></path>
                        <path d="M29.7789982,17.7324695 L28.0985111,14.8318257 L29.6948688,12.1834118 C29.6948688,12.1413735 29.736986,12.1413735 29.736986,12.0993352 C30.1571078,11.3426455 29.9049297,10.3757642 29.1488155,9.95538107 L26.2498702,8.27384843 L26.2919874,5.12097474 C26.2919874,4.2382752 25.5777804,3.56555705 24.7375369,3.56555705 L21.4184698,3.56555705 L19.9480436,0.917143142 C19.9480436,0.875209922 19.9061364,0.833066511 19.9061364,0.791028195 C19.4860147,0.0763768238 18.6037589,-0.175747976 17.8895519,0.160453456 C18.1836372,0.286568403 18.393698,0.496759983 18.5616417,0.791028195 C18.5616417,0.833066511 18.6037589,0.875209922 18.6037589,0.917143142 L20.0741852,3.56555705 L23.3930421,3.56555705 C24.2754029,3.56555705 24.9475977,4.28020842 24.9475977,5.12097474 L24.9055856,8.27384843 L27.8043208,9.95538107 C28.56054,10.3757642 28.8127181,11.3426455 28.3925963,12.0993352 C28.3925963,12.1413735 28.3504791,12.1413735 28.3504791,12.1834118 L26.7961336,14.8318257 L28.4766207,17.7324695 C28.8967424,18.4891592 28.6445643,19.4560405 27.8884502,19.8764236 C27.846438,19.8764236 27.8043208,19.9184619 27.7624136,19.9184619 L25.1156465,21.389803 L25.1156465,24.71083 C25.1156465,25.509558 24.4854638,26.182171 23.7291396,26.2662477 L24.8634684,26.2662477 C25.7458291,26.2662477 26.418024,25.5515963 26.418024,24.71083 L26.418024,21.389803 L29.0646861,19.9184619 C29.1068033,19.9184619 29.1488155,19.8764236 29.1907226,19.8764236 C29.9470469,19.4140022 30.2410271,18.4891592 29.7789982,17.7324695" id="Fill-6" fill="#F2A31E"></path>
                        <path d="M15.5788611,4.95286351 C18.3515598,4.95286351 20.8722905,6.08789804 22.6789192,7.89554563 C24.4854428,9.70319321 25.6197716,12.2254922 25.6197716,15.000021 C25.6197716,17.7745499 24.4854428,20.2968488 22.6789192,22.1044964 C20.8722905,23.9120389 18.3515598,25.0471785 15.5788611,25.0471785 C12.8060574,25.0471785 10.2853268,23.9120389 8.47869811,22.1044964 C6.67227951,20.2968488 5.53784569,17.7745499 5.53784569,15.000021 C5.53784569,12.2254922 6.67227951,9.70319321 8.47869811,7.89554563 C10.2853268,6.08789804 12.8060574,4.95286351 15.5788611,4.95286351 M21.460566,9.07261847 C19.9481276,7.5592391 17.8475187,6.63439615 15.5788611,6.63439615 C13.2681914,6.63439615 11.2094897,7.5592391 9.69715629,9.07261847 C8.1847179,10.5859978 7.26045,12.6879136 7.26045,14.9579827 C7.26045,17.2700901 8.1847179,19.3720059 9.69715629,20.8433469 C11.2094897,22.3567263 13.3100985,23.2814642 15.5788611,23.2814642 C17.8895309,23.2814642 19.9481276,22.3567263 21.460566,20.8433469 C22.9728994,19.3299676 23.8972723,17.2280518 23.8972723,14.9579827 C23.8972723,12.6879136 22.9728994,10.5859978 21.460566,9.07261847" id="Fill-8" fill="#F2A31E"></path>
                        <path d="M15.0326818,4.95286351 C17.8054856,4.95286351 20.3262162,6.08789804 22.1327398,7.89554563 C23.9392635,9.70319321 25.0735923,12.2254922 25.0735923,15.000021 C25.0735923,17.7745499 23.9392635,20.2968488 22.1327398,22.1044964 C20.3262162,23.9120389 17.8054856,25.0471785 15.0326818,25.0471785 C12.2598781,25.0471785 9.73914746,23.9120389 7.93262383,22.1044964 C6.1261002,20.2968488 4.9917714,17.7745499 4.9917714,15.000021 C4.9917714,12.2254922 6.1261002,9.70319321 7.93262383,7.89554563 C9.73914746,6.08789804 12.2598781,4.95286351 15.0326818,4.95286351 M20.9143867,9.07261847 C19.4019483,7.5592391 17.3013394,6.63439615 15.0326818,6.63439615 C12.7220121,6.63439615 10.6634154,7.5592391 9.15097698,9.07261847 C7.63853859,10.5859978 6.71427068,12.6879136 6.71427068,14.9579827 C6.71427068,17.2700901 7.63853859,19.3720059 9.15097698,20.8433469 C10.6634154,22.3567263 12.7640242,23.2814642 15.0326818,23.2814642 C17.3433516,23.2814642 19.4019483,22.3567263 20.9143867,20.8433469 C22.4268251,19.3299676 23.351093,17.2280518 23.351093,14.9579827 C23.3931052,12.6879136 22.4268251,10.5859978 20.9143867,9.07261847" id="Fill-10" fill="#FCF8CF"></path>
                    </g>
                    <text id="1" font-family="NewYork-Regular, New York" font-size="14" font-weight="normal" fill="#F2A31E">
                        <tspan x="11.9999873" y="20.1038633">1</tspan>
                    </text>
                </g>
            </g>
        </g>
    </g>
</svg>