<svg id="Capa_1" data-name="Capa 1" xmlns="http://www.w3.org/2000/svg" viewBox="0 0 35 35"><defs><style>.cls-1{fill:#666;stroke:#666;stroke-miterlimit:10;stroke-width:0.25px;}</style></defs><path class="cls-1" d="M14.39,28.11A2,2,0,0,0,14.73,27a2,2,0,1,0-4,0,2,2,0,0,0,.35,1.12,3.53,3.53,0,0,0-1.88,3h-.6L8.21,31h0a3.56,3.56,0,0,0-1.06-2.11,2,2,0,0,0,.63-1,2,2,0,0,0-3.87-1.1,2.06,2.06,0,0,0,0,1.18,3.55,3.55,0,0,0-2.05,1.28L.81,29l-.19.7.86.24L2,30H2l5.63,1.55.56.15.2.05,7.41,0v2.11h.73V31.08h-.3A3.55,3.55,0,0,0,14.39,28.11ZM4.45,26.93a1.46,1.46,0,0,1,2.8.8,1.42,1.42,0,0,1-.55.78,1.3,1.3,0,0,1-.64.26h0a1.45,1.45,0,0,1-1.14-.32,1.43,1.43,0,0,1-.42-.56A1.49,1.49,0,0,1,4.45,26.93Zm-2,2.48a3,3,0,0,1,1.71-.93,2,2,0,0,0,2.47.7,3,3,0,0,1,1,1.64Zm10.24-3.87A1.44,1.44,0,0,1,14.17,27a1.42,1.42,0,0,1-.31.9,1.35,1.35,0,0,1-.55.42h0a1.43,1.43,0,0,1-1.19,0A1.42,1.42,0,0,1,11.26,27,1.45,1.45,0,0,1,12.72,25.54Zm-1.28,3a2,2,0,0,0,1.28.46A2,2,0,0,0,14,28.54a3,3,0,0,1,1.7,2.54h-6A3,3,0,0,1,11.44,28.54Z"/><path class="cls-1" d="M14.24,20.31a2,2,0,1,0-3.69-1.12,1.93,1.93,0,0,0,.34,1.12A3.56,3.56,0,0,0,9,23.39h-.4l-.41-.11a3.42,3.42,0,0,0-1-2.09,1.94,1.94,0,0,0,.63-1,2,2,0,0,0-3.87-1.1,2.06,2.06,0,0,0,0,1.18,3.55,3.55,0,0,0-2,1.28l-1-.29L.66,22l.82.23.56.16,5.63,1.54.56.15.23.06,7.42,0v2.1h.73V23.39h-.49A3.56,3.56,0,0,0,14.24,20.31Zm-1.68-2.57A1.45,1.45,0,0,1,14,19.19a1.48,1.48,0,0,1-.31.9,1.35,1.35,0,0,1-.55.42h0a1.35,1.35,0,0,1-.6.13,1.31,1.31,0,0,1-.59-.13,1.42,1.42,0,0,1-.55-.42,1.48,1.48,0,0,1-.31-.9A1.44,1.44,0,0,1,12.56,17.74Zm-1.28,3a2,2,0,0,0,1.28.46,2,2,0,0,0,1.28-.46,3,3,0,0,1,1.71,2.63h-6A3,3,0,0,1,11.28,20.74ZM4.45,19.25a1.46,1.46,0,0,1,1.79-1,1.47,1.47,0,0,1,1,1.8,1.39,1.39,0,0,1-.55.78,1.3,1.3,0,0,1-.64.26l-.21,0a1.34,1.34,0,0,1-.4-.06,1.28,1.28,0,0,1-.53-.28,1.39,1.39,0,0,1-.42-.57A1.44,1.44,0,0,1,4.45,19.25Zm-2,2.47a2.93,2.93,0,0,1,1.7-.93,2,2,0,0,0,2.47.7,2.94,2.94,0,0,1,.94,1.63Z"/><path class="cls-1" d="M18.87,23.39h-.45v2.83h.73v-2.1h7.33L27,24l.56-.15h0l5.61-1.52.56-.15.7-.2-.19-.7-.92.26a3.53,3.53,0,0,0-2-1.25,2,2,0,0,0,0-1.18,2,2,0,0,0-3.87,1.1,1.94,1.94,0,0,0,.63,1,3.46,3.46,0,0,0-1,2l-.56.15H26a3.56,3.56,0,0,0-1.88-3.08,1.93,1.93,0,0,0,.34-1.12,2,2,0,1,0-4,0,1.93,1.93,0,0,0,.34,1.12A3.57,3.57,0,0,0,18.87,23.39ZM27.93,20a1.45,1.45,0,1,1,2.8-.79,1.44,1.44,0,0,1-.05.94,1.46,1.46,0,0,1-.41.57,1.49,1.49,0,0,1-1.15.32h0a1.3,1.3,0,0,1-.64-.26A1.39,1.39,0,0,1,27.93,20Zm.6,1.45a2,2,0,0,0,2.46-.7,3,3,0,0,1,1.67.89l-5.08,1.4A2.94,2.94,0,0,1,28.53,21.49Zm-6.11-3.75a1.46,1.46,0,0,1,1.47,1.45,1.48,1.48,0,0,1-.31.9,1.42,1.42,0,0,1-.55.42h0a1.43,1.43,0,0,1-1.19,0,1.42,1.42,0,0,1-.55-.42,1.48,1.48,0,0,1-.31-.9A1.45,1.45,0,0,1,22.42,17.74Zm-1.27,3a2,2,0,0,0,1.27.46,2,2,0,0,0,1.29-.46,3,3,0,0,1,1.71,2.63h-6A3,3,0,0,1,21.15,20.74Z"/><path class="cls-1" d="M33.27,29.2a3.57,3.57,0,0,0-2-1.24,2,2,0,0,0,0-1.18,2,2,0,0,0-3.87,1.1,2,2,0,0,0,.63,1,3.49,3.49,0,0,0-1,2.06l-.56.15h-.3a3.53,3.53,0,0,0-1.88-3A2,2,0,0,0,24.6,27a2,2,0,1,0-4,0,2,2,0,0,0,.34,1.12,3.55,3.55,0,0,0-1.88,3h-.61v2.84h.73V31.81h7.33l.47-.13.56-.16L33.12,30l.55-.15.71-.19-.19-.7ZM22.58,25.54A1.45,1.45,0,0,1,24,27a1.48,1.48,0,0,1-.31.9,1.42,1.42,0,0,1-.55.42h0a1.31,1.31,0,0,1-.59.13,1.35,1.35,0,0,1-.6-.13,1.39,1.39,0,0,1-.54-.42,1.48,1.48,0,0,1-.31-.9A1.44,1.44,0,0,1,22.58,25.54Zm-1.28,3a2,2,0,0,0,1.28.46,2,2,0,0,0,1.28-.46,3,3,0,0,1,1.71,2.54h-6A3,3,0,0,1,21.3,28.54Zm6.63-.81a1.46,1.46,0,0,1,2.8-.8,1.45,1.45,0,0,1-.46,1.52,1.54,1.54,0,0,1-.54.28,1.4,1.4,0,0,1-.61,0h0a1.3,1.3,0,0,1-.64-.26A1.42,1.42,0,0,1,27.93,27.73Zm-.35,3a3,3,0,0,1,1-1.58,2,2,0,0,0,2.46-.7,3,3,0,0,1,1.67.89Z"/><path class="cls-1" d="M1.47,11.83l8.39,4.5a.53.53,0,0,0,.17,0H25.55l.09,0,.08,0,.05,0,8.35-4.47a.37.37,0,0,0,.19-.32V5.85a.34.34,0,0,0-.17-.31.38.38,0,0,0-.36,0L29.6,7.78a3.59,3.59,0,0,0-1.18-1,2.06,2.06,0,0,0,.34-1.13,2,2,0,0,0-4,0,2,2,0,0,0,.35,1.13,3.55,3.55,0,0,0-1.89,3.06h-.94V7.34A.36.36,0,0,0,21.89,7h-.54a3.52,3.52,0,0,0-1.86-2.75,2,2,0,0,0,.34-1.13,2,2,0,1,0-4,0,2,2,0,0,0,.34,1.13A3.52,3.52,0,0,0,14.29,7h-.54a.36.36,0,0,0-.36.36V9.83h-.84A3.56,3.56,0,0,0,10.67,7,1.92,1.92,0,0,0,11,5.88a2,2,0,1,0-4,0A2,2,0,0,0,7.33,7a3.69,3.69,0,0,0-1.1.9L1.8,5.53a.36.36,0,0,0-.35,0,.35.35,0,0,0-.18.31v5.66A.36.36,0,0,0,1.47,11.83ZM30,8.4l3.62-1.94v4.83l-7.66,4.1V10.56l.32-.17,1.05-.56,2.17-1.16ZM26.74,4.19A1.45,1.45,0,0,1,27.34,7h0a1.43,1.43,0,0,1-1.19,0,1.45,1.45,0,0,1-.55-.43,1.45,1.45,0,0,1,1.14-2.35Zm-1.27,3A2,2,0,0,0,28,7.2,3.15,3.15,0,0,1,29.09,8L25.76,9.83h-2A3,3,0,0,1,25.47,7.2ZM17.82,1.65A1.45,1.45,0,0,1,19,4a1.55,1.55,0,0,1-.55.43h0a1.54,1.54,0,0,1-1.19,0A1.55,1.55,0,0,1,16.67,4a1.53,1.53,0,0,1-.31-.9A1.46,1.46,0,0,1,17.82,1.65Zm-1.28,3a2,2,0,0,0,2.56,0A3,3,0,0,1,20.79,7H14.85A3,3,0,0,1,16.54,4.66Zm-2.42,3h7.4V9.83h-7.4Zm0,2.86H25.19v5.07H10.44V10.56h3.68ZM9,4.43a1.45,1.45,0,0,1,1.46,1.45,1.48,1.48,0,0,1-.31.9,1.55,1.55,0,0,1-.55.43h0a1.51,1.51,0,0,1-1.18,0,1.47,1.47,0,0,1-.55-.43,1.42,1.42,0,0,1-.31-.9A1.45,1.45,0,0,1,9,4.43Zm-1.28,3A2,2,0,0,0,9,7.89a2,2,0,0,0,1.28-.46A3,3,0,0,1,12,9.83H10.07a.3.3,0,0,0-.16.05L6.75,8.18A3.12,3.12,0,0,1,7.72,7.43ZM2,6.46,5.84,8.52l.5.26,2.38,1.28.95.51V15.4L2,11.29Z"/></svg>