<svg data-name="Capa 1" xmlns="http://www.w3.org/2000/svg" viewBox="0 0 35 35"><defs><style>.cls-1{fill:#666;}</style></defs><path class="cls-1" d="M13.58,8.72l3-2.75v5.88a.88.88,0,1,0,1.76,0V6.08L21,8.7a.86.86,0,0,0,.61.25h0a.87.87,0,0,0,.62-.26.9.9,0,0,0,.25-.62.84.84,0,0,0-.26-.62L17.5,2.77,12.4,7.43a.82.82,0,0,0-.29.6.89.89,0,0,0,.23.64A.91.91,0,0,0,13.58,8.72Z"/><path class="cls-1" d="M27,12.33a.89.89,0,0,0-.61-.28.84.84,0,0,0-.63.22.86.86,0,0,0-.29.61.85.85,0,0,0,.23.63l2.75,3H22.54a.88.88,0,1,0,0,1.75h5.77l-2.62,2.65a.9.9,0,0,0-.25.62.84.84,0,0,0,.26.62.87.87,0,0,0,.62.26.9.9,0,0,0,.62-.26l4.68-4.74Z"/><path class="cls-1" d="M6.69,18.28h5.77a.88.88,0,1,0,0-1.75H6.58l2.75-3a.85.85,0,0,0,.23-.63.82.82,0,0,0-.29-.6.81.81,0,0,0-.63-.23.89.89,0,0,0-.61.28l-4.65,5.1,4.68,4.74a.87.87,0,0,0,1.24,0,.84.84,0,0,0,.26-.62.9.9,0,0,0-.25-.62Z"/><path class="cls-1" d="M21.62,26.05h0a.86.86,0,0,0-.61.25l-2.65,2.62V23.15a.88.88,0,1,0-1.76,0V29l-3-2.75a.84.84,0,0,0-.63-.23.87.87,0,0,0-.61.28.89.89,0,0,0-.23.64.82.82,0,0,0,.29.6l5.1,4.66,4.73-4.68a.84.84,0,0,0,.26-.62.9.9,0,0,0-.25-.62A.87.87,0,0,0,21.62,26.05Z"/><path class="cls-1" d="M17.47,13.84A3.57,3.57,0,1,0,21,17.41,3.57,3.57,0,0,0,17.47,13.84Zm1.81,3.57a1.81,1.81,0,1,1-1.81-1.81A1.82,1.82,0,0,1,19.28,17.41Z"/></svg>                    
