<svg data-name="Capa 1" xmlns="http://www.w3.org/2000/svg" viewBox="0 0 35 35"><defs><style>.cls-1{fill:#666;}</style></defs><path class="cls-1" d="M24.93,6.53l-4.14-.35a3.16,3.16,0,0,0-3.41,2.73L17.23,10a3.2,3.2,0,0,0,1.31,3,1.49,1.49,0,0,1,.51,1.82l-.27.61L16,20.64l-.67.94a1.49,1.49,0,0,1-1.83.49,3.17,3.17,0,0,0-3.28.41l-.83.66a3.19,3.19,0,0,0-.62,4.33l2.4,3.39a2.19,2.19,0,0,0,1.49.89H13a2.66,2.66,0,0,0,.39-.07,1.8,1.8,0,0,0,.62-.34c4.56-3.81,6.94-6.94,9.8-12.87l.22-.46a23.29,23.29,0,0,0,1-2.19l.12-.33a26.38,26.38,0,0,0,1.66-6.88A2,2,0,0,0,24.93,6.53ZM23.46,15.2l-.05.14a17.88,17.88,0,0,1-1.08,2.36c-3.12,5.78-5.06,8.88-9.38,12.35a.11.11,0,0,1-.09,0,.53.53,0,0,1-.31-.2l-2.4-3.39a1.49,1.49,0,0,1,.29-2l.83-.66a1.47,1.47,0,0,1,.82-.32h.1a1.44,1.44,0,0,1,.62.13,3.18,3.18,0,0,0,3.89-1.05l.68-.94a1.59,1.59,0,0,0,.13-.22l2.76-5.18.06-.12.26-.6a3.19,3.19,0,0,0-1.07-3.88,1.49,1.49,0,0,1-.62-1.43l.15-1a1.48,1.48,0,0,1,1.6-1.28l4.14.35a.36.36,0,0,1,.34.36A25.15,25.15,0,0,1,23.46,15.2Z"/><path class="cls-1" d="M16.22,6.67a.63.63,0,0,0,.56.34h0A.86.86,0,0,0,17.05,7a.62.62,0,0,0,.27-.83L16,3.57a.62.62,0,1,0-1.1.56Z"/><path class="cls-1" d="M12.55,7.22l3.24,1.15a.46.46,0,0,0,.21,0h0A.62.62,0,0,0,16.57,8a.59.59,0,0,0,0-.47.61.61,0,0,0-.35-.32L13,6.06a.59.59,0,0,0-.47,0,.61.61,0,0,0-.32.35.64.64,0,0,0,0,.47A.65.65,0,0,0,12.55,7.22Z"/><path class="cls-1" d="M15.69,9l-2.59.8a.62.62,0,0,0-.36.3.59.59,0,0,0,0,.47.6.6,0,0,0,.58.43h.05l.14,0,2.58-.8a.63.63,0,0,0,.41-.77A.62.62,0,0,0,15.69,9Z"/></svg>