<svg data-name="Capa 1" xmlns="http://www.w3.org/2000/svg" viewBox="0 0 35 35"><defs><style>.cls-1{fill:#666;}</style></defs><path class="cls-1" d="M22.86,17.52a6.85,6.85,0,0,0,1.67-4.47,7,7,0,0,0-14.06,0,6.85,6.85,0,0,0,1.67,4.47,11.12,11.12,0,0,0-6,9.9c0,.23,0,.46,0,.69l0,.79H28.79l.05-.79c0-.23,0-.46,0-.69A11.13,11.13,0,0,0,22.86,17.52Zm-5.36.8a5.28,5.28,0,1,1,5.34-5.27A5.31,5.31,0,0,1,17.5,18.32Zm-4,.42a7,7,0,0,0,8,0,9.54,9.54,0,0,1,5.65,8.49H7.83A9.54,9.54,0,0,1,13.48,18.74Z"/></svg>              
